<svg xmlns="http://www.w3.org/2000/svg" viewBox="0 0 64 64" fill="none">
  <!-- Outer Teal Circle filling edge-to-edge -->
  <circle cx="32" cy="32" r="32" fill="#00667a"/>

  <!-- Inner Speech Bubble -->
  <path d="M 32 12 C 20.95 12 12 19.8 12 29.4 C 12 34.6 14.7 39.2 19 42.4 L 17.2 48.8 C 17 49.5 17.7 50.1 18.3 49.7 L 25.5 45.8 C 27.5 46.4 29.7 46.8 32 46.8 C 43.05 46.8 52 39 52 29.4 C 52 19.8 43.05 12 32 12 Z" fill="#ffffff"/>

  <!-- Subtitle Line 1 -->
  <rect x="23" y="23" width="18" height="3.6" rx="1.8" fill="#00667a"/>

  <!-- Subtitle Line 2 -->
  <rect x="23" y="29.4" width="10.8" height="3.6" rx="1.8" fill="#00667a"/>

  <!-- Play Button Triangle -->
  <path d="M 37.8 28.5 L 43.8 32 L 37.8 35.5 Z" fill="#00667a" stroke="#00667a" stroke-width="1.2" stroke-linejoin="round"/>
</svg>
